<?xml version="1.0" encoding="UTF-8" standalone="no"?>
<!-- Created with Inkscape (http://www.inkscape.org/) -->
<svg id="svg4812" xmlns:rdf="http://www.w3.org/1999/02/22-rdf-syntax-ns#" xmlns="http://www.w3.org/2000/svg" height="38.535" width="188.48" version="1.1" xmlns:cc="http://creativecommons.org/ns#" xmlns:dc="http://purl.org/dc/elements/1.1/">
 <metadata id="metadata4817">
  <rdf:RDF>
   <cc:Work rdf:about="">
    <dc:format>image/svg+xml</dc:format>
    <dc:type rdf:resource="http://purl.org/dc/dcmitype/StillImage"/>
    <dc:title/>
   </cc:Work>
  </rdf:RDF>
 </metadata>
 <g id="layer1" transform="translate(-97.190292,-267.38031)">
  <g id="text4788" style="letter-spacing:0px;word-spacing:0px;" font-family="Sans" font-size="40px" line-height="125%" font-style="normal" font-weight="normal">
   <path id="path3796" fill="#0c8cef" d="m112.46,269.72c-0.00002,0.58596-0.15627,1.0808-0.46875,1.4844-0.31252,0.40367-0.78778,0.60549-1.4258,0.60546-0.40366,0.00003-0.76173-0.0846-1.0742-0.2539-0.29949-0.16925-0.57944-0.39711-0.83984-0.6836-0.26043-0.28643-0.50132-0.61195-0.72266-0.97656-0.22137-0.36455-0.41017-0.65752-0.56641-0.8789-0.8724,0.0391-1.5495,0.65106-2.0312,1.8359-0.46875,1.1719-0.70313,3.0469-0.70312,5.625v1.9727h4.9609v1.875h-4.9609v13.828c-0.00001,0.45574,0.0846,0.82683,0.2539,1.1133,0.18229,0.28646,0.46224,0.5013,0.83985,0.64453,0.31249,0.11719,0.72916,0.21484,1.25,0.29297,0.52082,0.0651,0.97004,0.11067,1.3476,0.13671v1.2891h-10.156v-1.2891c0.29948-0.026,0.60547-0.0521,0.91797-0.0781,0.32552-0.026,0.60546-0.0781,0.83984-0.15625,0.36458-0.11719,0.6315-0.31901,0.80078-0.60547,0.18229-0.29948,0.27343-0.68359,0.27344-1.1523v-14.023h-3.8086v-1.875h3.8086v-1.2305c-0.00001-2.9297,0.7552-5.2994,2.2656-7.1094,1.5234-1.8229,3.4245-2.7344,5.7031-2.7344,1.1588,0.00003,2.0312,0.22789,2.6172,0.68359,0.58593,0.45576,0.87889,1.0092,0.87891,1.6602"/>
   <path id="path3798" fill="#a0a0a0" d="m118.69,280.97c-0.00001,0.72918-0.26694,1.3542-0.80078,1.875-0.52084,0.52085-1.1458,0.78126-1.875,0.78125-0.72917,0.00001-1.3607-0.2604-1.8945-0.78125-0.52084-0.52082-0.78126-1.1458-0.78125-1.875-0.00001-0.72915,0.26041-1.3542,0.78125-1.875,0.52082-0.53384,1.1523-0.80076,1.8945-0.80078,0.74218,0.00002,1.3737,0.26694,1.8945,0.80078,0.52082,0.52085,0.78124,1.1458,0.78125,1.875m0,14.414c-0.00001,0.72917-0.26694,1.3542-0.80078,1.875-0.52084,0.50781-1.1458,0.76172-1.875,0.76172-0.72917,0-1.3607-0.25391-1.8945-0.76172-0.52084-0.52083-0.78126-1.1458-0.78125-1.875-0.00001-0.72916,0.26041-1.3542,0.78125-1.875,0.53385-0.53385,1.1654-0.80077,1.8945-0.80078,0.72916,0.00001,1.3542,0.26693,1.875,0.80078,0.53384,0.52084,0.80077,1.1458,0.80078,1.875"/>
   <path id="path3800" fill="#a0a0a0" d="m139.26,267.89-13.496,38.027-2.5391,0,13.457-38.027,2.5781,0"/>
   <path id="path3802" fill="#a0a0a0" d="m158.01,267.89-13.496,38.027-2.5391,0,13.457-38.027,2.5781,0"/>
   <path id="path3804" fill="#0c8cef" d="m181.82,297.28-6.2695,0.42969-0.29297-0.27344,0-2.4414-0.11719,0c-0.31251,0.32552-0.66408,0.67708-1.0547,1.0547-0.39064,0.36458-0.83985,0.69661-1.3476,0.99609-0.58595,0.35156-1.1524,0.61849-1.6992,0.80078-0.54689,0.18229-1.3216,0.27344-2.3242,0.27344-1.7057,0-3.0078-0.55339-3.9062-1.6602-0.88542-1.1198-1.3281-2.7409-1.3281-4.8633v-9.2188c0-0.46873-0.0911-0.85936-0.27343-1.1719-0.16928-0.32551-0.42318-0.60546-0.76172-0.83985-0.23438-0.15623-0.52735-0.26691-0.87891-0.33203-0.35156-0.0781-0.72265-0.13019-1.1133-0.15625v-1.2695l6.4258-0.46875,0.29297,0.27344v13.379c-0.00001,1.3932,0.31249,2.4414,0.9375,3.1445,0.62499,0.70313,1.3737,1.0547,2.2461,1.0547,0.71614,0,1.3542-0.11067,1.9141-0.33203,0.55988-0.22135,1.0286-0.48177,1.4062-0.78125,0.35155-0.27343,0.65753-0.55989,0.91797-0.85937,0.27342-0.3125,0.48175-0.59896,0.625-0.85938v-10.918c-0.00002-0.42967-0.0912-0.80727-0.27344-1.1328-0.18231-0.33853-0.43621-0.62498-0.76172-0.85938-0.23439-0.15623-0.58595-0.24737-1.0547-0.27343-0.45574-0.0391-0.97006-0.0716-1.543-0.0977v-1.2695l6.9922-0.46875,0.29297,0.27344v15.293c-0.00002,0.44271,0.0911,0.82031,0.27344,1.1328,0.18227,0.3125,0.43618,0.57943,0.76172,0.80078,0.23435,0.14323,0.5143,0.24089,0.83984,0.29297,0.3255,0.0391,0.68357,0.0651,1.0742,0.0781v1.2695"/>
   <path id="path3806" fill="#0c8cef" d="m198.97,280.86c-0.00002,0.66408-0.16278,1.2565-0.48829,1.7774-0.32553,0.50782-0.82683,0.76173-1.5039,0.76172-0.72918,0.00001-1.2891-0.18879-1.6797-0.56641-0.37762-0.37759-0.56642-0.79426-0.56641-1.25-0.00001-0.28644,0.0195-0.54686,0.0586-0.78125,0.0521-0.23436,0.0976-0.46873,0.13672-0.70313-0.61199,0.00002-1.3281,0.24742-2.1484,0.74219-0.82032,0.49481-1.5169,1.1979-2.0898,2.1094v11.211c-0.00001,0.45574,0.0846,0.82683,0.2539,1.1133,0.18229,0.28646,0.46223,0.5013,0.83985,0.64453,0.32551,0.13021,0.74217,0.22786,1.25,0.29297,0.52082,0.0651,0.97004,0.11067,1.3476,0.13671v1.2891h-10.156v-1.2891c0.29948-0.026,0.60547-0.0521,0.91797-0.0781,0.32552-0.026,0.60547-0.0781,0.83984-0.15625,0.36458-0.11719,0.63151-0.31901,0.80079-0.60547,0.18228-0.29948,0.27343-0.68359,0.27343-1.1523v-11.895c0-0.40364-0.0977-0.80077-0.29297-1.1914-0.18229-0.39061-0.44271-0.70311-0.78125-0.9375-0.24739-0.15623-0.54036-0.26691-0.8789-0.33203-0.33855-0.0781-0.70313-0.13019-1.0938-0.15625v-1.2695l6.4062-0.42969,0.27344,0.27344v2.7148h0.0977c0.80729-1.0547,1.7057-1.8554,2.6953-2.4023,0.98958-0.54686,1.8945-0.8203,2.7148-0.82032,0.8203,0.00002,1.4844,0.26695,1.9922,0.80079,0.52081,0.53387,0.78123,1.25,0.78125,2.1484"/>
   <path id="path3808" fill="#0c8cef" d="m209.65,297.63-9.3945,0,0-1.2891c0.29948-0.026,0.61849-0.0521,0.95703-0.0781,0.33854-0.0391,0.61849-0.0911,0.83984-0.15625,0.36458-0.11719,0.63802-0.31901,0.82032-0.60547,0.18228-0.29948,0.27343-0.68359,0.27343-1.1523v-22.305c0-0.46873-0.10417-0.90492-0.3125-1.3086-0.19531-0.41664-0.45573-0.74216-0.78125-0.97657-0.23437-0.15622-0.66406-0.29945-1.2891-0.42968-0.625-0.13018-1.1263-0.20831-1.5039-0.23438v-1.25l7.2461-0.44922,0.27344,0.29297v26.426c-0.00001,0.45573,0.0846,0.83334,0.2539,1.1328,0.16927,0.28646,0.4427,0.50782,0.82031,0.66407,0.28645,0.13021,0.5664,0.22786,0.83985,0.29297,0.28645,0.0651,0.60546,0.11067,0.95703,0.13671v1.2891"/>
   <path id="path3810" fill="#24292e" d="m248.15,297.63-11.543,0,0-1.3867c1.0156-0.0651,1.8555-0.19531,2.5195-0.39063,0.67706-0.19531,1.0156-0.43619,1.0156-0.72265-0.00002-0.11719-0.013-0.26042-0.0391-0.42969s-0.0651-0.31901-0.11719-0.44922l-2.3047-6.2109h-9.707c-0.36459,0.91147-0.66407,1.7057-0.89844,2.3828-0.22136,0.67708-0.42318,1.3021-0.60546,1.875-0.16928,0.5599-0.28647,1.0156-0.35157,1.3672-0.0651,0.35157-0.0977,0.63803-0.0977,0.85938-0.00001,0.52083,0.41015,0.92448,1.2305,1.2109,0.8203,0.28645,1.7448,0.45573,2.7734,0.50781v1.3867h-10.43v-1.3867c0.33854-0.026,0.76171-0.0977,1.2695-0.21485,0.50781-0.1302,0.92448-0.29947,1.25-0.50781,0.52083-0.35156,0.92447-0.71614,1.2109-1.0938,0.28646-0.39062,0.56641-0.92447,0.83985-1.6016,1.3932-3.4766,2.9297-7.3828,4.6094-11.719,1.6797-4.3359,3.1771-8.1966,4.4922-11.582h1.5625l9.2383,23.906c0.19529,0.50781,0.41664,0.91797,0.66406,1.2305,0.24738,0.3125,0.59243,0.61849,1.0352,0.91797,0.29945,0.18229,0.69008,0.33854,1.1719,0.46875,0.48174,0.11718,0.88539,0.18229,1.2109,0.19531v1.3867m-11.172-11.328-4.1992-10.742-4.1211,10.742,8.3203,0"/>
   <path id="path3812" fill="#24292e" d="m270.39,276.76c-0.00003,1.4453-0.28648,2.7279-0.85938,3.8477-0.55992,1.1068-1.3412,2.0248-2.3438,2.7539-0.9896,0.72918-2.0768,1.263-3.2617,1.6016-1.1849,0.33855-2.4414,0.50782-3.7695,0.50781h-3.1055v8.3984c-0.00001,0.45573,0.0716,0.85937,0.21485,1.2109,0.15624,0.33855,0.46874,0.59896,0.9375,0.78125,0.23436,0.0911,0.64452,0.17579,1.2305,0.25391,0.59894,0.0781,1.1458,0.1237,1.6406,0.13672v1.3867h-11.895v-1.3867c0.3125-0.026,0.76172-0.0716,1.3477-0.13672,0.59895-0.0651,1.0156-0.14974,1.25-0.25391,0.39062-0.16927,0.67056-0.41666,0.83984-0.74218,0.18229-0.32552,0.27343-0.74219,0.27344-1.25v-20c-0.00001-0.45571-0.0651-0.86587-0.19532-1.2305-0.13021-0.36456-0.4362-0.638-0.91796-0.82032-0.4948-0.16924-0.98959-0.28643-1.4844-0.35156-0.48177-0.0781-0.89844-0.13018-1.25-0.15625v-1.3867h12.656c2.5781,0.00003,4.668,0.62503,6.2695,1.875,1.6146,1.237,2.4218,2.8906,2.4219,4.9609m-5.9375,4.7266c0.44269-0.62498,0.73566-1.2695,0.8789-1.9336,0.14321-0.67707,0.21483-1.2825,0.21485-1.8164-0.00002-0.74216-0.0912-1.4974-0.27344-2.2656-0.16929-0.76821-0.46877-1.4388-0.89844-2.0117-0.45574-0.61196-1.0547-1.0872-1.7969-1.4258-0.7422-0.33852-1.6667-0.50779-2.7734-0.50781h-2.7539v12.246h1.9922c1.4062,0.00001,2.5456-0.21483,3.418-0.64453,0.8854-0.4427,1.5495-0.98957,1.9922-1.6406"/>
   <path id="path3814" fill="#24292e" d="m285.67,297.63-12.48,0,0-1.3867c0.35156-0.026,0.85937-0.0651,1.5234-0.11719,0.66406-0.0521,1.1328-0.13021,1.4062-0.23437,0.42969-0.16927,0.74219-0.39714,0.9375-0.6836,0.19531-0.29948,0.29297-0.70963,0.29297-1.2305v-20.078c0-0.45571-0.0716-0.83331-0.21484-1.1328-0.14324-0.31248-0.48178-0.5729-1.0156-0.78125-0.39063-0.15623-0.88542-0.29946-1.4844-0.42969-0.58594-0.14321-1.0677-0.22784-1.4453-0.25391v-1.3867h12.48v1.3867c-0.40365,0.0131-0.88542,0.0651-1.4453,0.15625-0.55991,0.0781-1.0482,0.18232-1.4648,0.3125-0.4948,0.15628-0.82683,0.41018-0.9961,0.76172-0.16928,0.35159-0.25391,0.74221-0.2539,1.1719v20.059c-0.00001,0.42969,0.0911,0.8138,0.27344,1.1523,0.1953,0.32553,0.52082,0.58594,0.97656,0.78125,0.27342,0.10417,0.71613,0.22136,1.3281,0.35157,0.62499,0.11718,1.1523,0.18229,1.582,0.19531v1.3867"/>
  </g>
 </g>
</svg>
