<?xml version="1.0" encoding="UTF-8" standalone="no"?>
<!-- Created with Inkscape (http://www.inkscape.org/) -->
<svg id="svg3997" xmlns:rdf="http://www.w3.org/1999/02/22-rdf-syntax-ns#" xmlns="http://www.w3.org/2000/svg" height="38.535" width="112.46" version="1.1" xmlns:cc="http://creativecommons.org/ns#" xmlns:dc="http://purl.org/dc/elements/1.1/">
 <metadata id="metadata4002">
  <rdf:RDF>
   <cc:Work rdf:about="">
    <dc:format>image/svg+xml</dc:format>
    <dc:type rdf:resource="http://purl.org/dc/dcmitype/StillImage"/>
    <dc:title/>
   </cc:Work>
  </rdf:RDF>
 </metadata>
 <g id="layer1" transform="translate(-42.54018,-40.965416)">
  <g id="text4660" style="letter-spacing:0px;word-spacing:0px;" font-weight="normal" font-size="40px" font-style="normal" font-stretch="normal" line-height="125%" font-variant="normal" font-family="Georgia">
   <path id="path4704" fill="#0c8cef" d="m57.814,43.309c-0.000016,0.58596-0.15627,1.0808-0.46875,1.4844-0.31252,0.40367-0.78778,0.6055-1.4258,0.60547-0.40366,0.000026-0.76173-0.08461-1.0742-0.25391-0.29949-0.16924-0.57944-0.39711-0.83984-0.68359-0.26043-0.28643-0.50131-0.61195-0.72266-0.97656-0.22136-0.36456-0.41017-0.65752-0.56641-0.87891-0.8724,0.03909-1.5495,0.65107-2.0312,1.8359-0.46876,1.1719-0.70313,3.0469-0.70312,5.625v1.9727h4.9609v1.875h-4.9609v13.828c-0.000007,0.45573,0.08463,0.82682,0.25391,1.1133,0.18228,0.28646,0.46223,0.5013,0.83984,0.64453,0.31249,0.11719,0.72916,0.21484,1.25,0.29297,0.52082,0.0651,0.97004,0.11068,1.3477,0.13672v1.2891h-10.156v-1.2891c0.29948-0.02604,0.60547-0.05208,0.91797-0.07813,0.32552-0.02604,0.60547-0.07812,0.83984-0.15625,0.36458-0.11719,0.63151-0.31901,0.80078-0.60547,0.18229-0.29948,0.27343-0.68359,0.27344-1.1523v-14.023h-3.8086v-1.875h3.8086v-1.2305c-0.000004-2.9297,0.7552-5.2995,2.2656-7.1094,1.5234-1.8229,3.4245-2.7343,5.7031-2.7344,1.1588,0.00003,2.0312,0.2279,2.6172,0.68359,0.58592,0.45576,0.87889,1.0091,0.87891,1.6602"/>
   <path id="path4706" fill="#a0a0a0" d="m64.044,54.559c-0.000008,0.72918-0.26694,1.3542-0.80078,1.875-0.52084,0.52085-1.1458,0.78126-1.875,0.78125-0.72917,0.000014-1.3607-0.2604-1.8945-0.78125-0.52084-0.52082-0.78125-1.1458-0.78125-1.875-0.000004-0.72915,0.26041-1.3541,0.78125-1.875,0.52083-0.53384,1.1523-0.80076,1.8945-0.80078,0.74218,0.000019,1.3737,0.26695,1.8945,0.80078,0.52082,0.52085,0.78124,1.1459,0.78125,1.875m0,14.414c-0.000008,0.72917-0.26694,1.3542-0.80078,1.875-0.52084,0.50781-1.1458,0.76172-1.875,0.76172-0.72917,0-1.3607-0.25391-1.8945-0.76172-0.52084-0.52083-0.78125-1.1458-0.78125-1.875-0.000004-0.72916,0.26041-1.3542,0.78125-1.875,0.53385-0.53385,1.1654-0.80078,1.8945-0.80078,0.72916,0.000005,1.3542,0.26693,1.875,0.80078,0.53385,0.52084,0.80077,1.1458,0.80078,1.875"/>
   <path id="path4708" fill="#a0a0a0" d="m84.61,41.473-13.496,38.027-2.5391,0,13.457-38.027,2.5781,0"/>
   <path id="path4710" fill="#a0a0a0" d="m103.36,41.473-13.496,38.027-2.5391,0,13.457-38.027,2.5781,0"/>
   <path id="path4712" fill="#0c8cef" d="m127.17,70.868-6.2695,0.42969-0.29297-0.27344,0-2.4414-0.11719,0c-0.31252,0.32552-0.66408,0.67709-1.0547,1.0547-0.39064,0.36458-0.83986,0.69662-1.3476,0.99609-0.58595,0.35156-1.1524,0.61849-1.6992,0.80078-0.54689,0.18229-1.3216,0.27344-2.3242,0.27344-1.7057,0-3.0078-0.55338-3.9062-1.6602-0.88542-1.1198-1.3281-2.7409-1.3281-4.8633v-9.2188c0-0.46873-0.0911-0.85936-0.27343-1.1719-0.16928-0.3255-0.42318-0.60545-0.76172-0.83984-0.23438-0.15623-0.52735-0.26691-0.87891-0.33203-0.35156-0.07811-0.72266-0.13019-1.1133-0.15625v-1.2695l6.4258-0.46875,0.29297,0.27344v13.379c-0.00001,1.3932,0.31249,2.4414,0.9375,3.1445,0.62499,0.70313,1.3737,1.0547,2.2461,1.0547,0.71614,0.000002,1.3542-0.11068,1.9141-0.33203,0.55988-0.22135,1.0286-0.48177,1.4062-0.78125,0.35154-0.27344,0.65753-0.55989,0.91796-0.85938,0.27343-0.3125,0.48176-0.59895,0.625-0.85938v-10.918c-0.00001-0.42967-0.0912-0.80728-0.27343-1.1328-0.18231-0.33852-0.43622-0.62498-0.76172-0.85938-0.23439-0.15623-0.58595-0.24738-1.0547-0.27344-0.45574-0.03905-0.97006-0.0716-1.543-0.09766v-1.2695l6.9922-0.46875,0.29297,0.27344v15.293c-0.00002,0.44271,0.0911,0.82032,0.27344,1.1328,0.18227,0.3125,0.43617,0.57943,0.76171,0.80078,0.23436,0.14323,0.51431,0.24089,0.83985,0.29297,0.3255,0.03906,0.68357,0.06511,1.0742,0.07813v1.2695"/>
   <path id="path4714" fill="#0c8cef" d="m144.32,54.442c-0.00001,0.66408-0.16277,1.2565-0.48828,1.7773-0.32553,0.50783-0.82684,0.76173-1.5039,0.76172-0.72918,0.000014-1.2891-0.18879-1.6797-0.56641-0.37762-0.37759-0.56642-0.79426-0.56641-1.25-0.00001-0.28644,0.0195-0.54686,0.0586-0.78125,0.0521-0.23436,0.0976-0.46873,0.13672-0.70312-0.612,0.000017-1.3281,0.24741-2.1484,0.74219-0.82032,0.49481-1.5169,1.1979-2.0898,2.1094v11.211c0,0.45573,0.0846,0.82682,0.25391,1.1133,0.18228,0.28646,0.46223,0.5013,0.83984,0.64453,0.32552,0.13021,0.74218,0.22787,1.25,0.29297,0.52083,0.0651,0.97004,0.11068,1.3477,0.13672v1.2891h-10.156v-1.2891c0.29948-0.02604,0.60547-0.05208,0.91797-0.07813,0.32552-0.02604,0.60546-0.07812,0.83984-0.15625,0.36458-0.11719,0.63151-0.31901,0.80078-0.60547,0.18229-0.29948,0.27344-0.68359,0.27344-1.1523v-11.895c0-0.40363-0.0977-0.80076-0.29297-1.1914-0.18229-0.39061-0.44271-0.70311-0.78125-0.9375-0.2474-0.15623-0.54036-0.26691-0.8789-0.33203-0.33855-0.07811-0.70313-0.13019-1.0938-0.15625v-1.2695l6.4062-0.42969,0.27343,0.27344v2.7148h0.0977c0.80728-1.0547,1.7057-1.8554,2.6953-2.4023,0.98957-0.54686,1.8945-0.82029,2.7148-0.82031,0.82029,0.000019,1.4844,0.26695,1.9922,0.80078,0.52082,0.53387,0.78124,1.25,0.78125,2.1484"/>
   <path id="path4716" fill="#0c8cef" d="m155,71.219-9.3945,0,0-1.2891c0.29947-0.02604,0.61848-0.05208,0.95703-0.07813,0.33854-0.03906,0.61848-0.09114,0.83984-0.15625,0.36458-0.11719,0.63802-0.31901,0.82031-0.60547,0.18229-0.29948,0.27344-0.68359,0.27344-1.1523v-22.305c0-0.46872-0.10417-0.90492-0.3125-1.3086-0.19531-0.41664-0.45573-0.74216-0.78125-0.97656-0.23438-0.15622-0.66406-0.29945-1.2891-0.42969-0.625-0.13018-1.1263-0.2083-1.5039-0.23438v-1.25l7.2461-0.44922,0.27343,0.29297v26.426c0,0.45573,0.0846,0.83334,0.25391,1.1328,0.16926,0.28646,0.4427,0.50781,0.82031,0.66406,0.28645,0.13021,0.5664,0.22787,0.83985,0.29297,0.28645,0.0651,0.60546,0.11068,0.95703,0.13672v1.2891"/>
  </g>
 </g>
</svg>
